<?xml version="1.0" standalone="no"?>
<!DOCTYPE svg PUBLIC "-//W3C//DTD SVG 1.1//EN" "http://www.w3.org/Graphics/SVG/1.1/DTD/svg11.dtd" >
<svg xmlns="http://www.w3.org/2000/svg">
<metadata>
Created by FontForge 20120731 at Tue May 12 23:12:16 2015
 By Ads
</metadata>
<defs>
<font id="iconfont" horiz-adv-x="1024" >
  <font-face 
    font-family="iconfont"
    font-weight="500"
    font-stretch="normal"
    units-per-em="1024"
    panose-1="2 0 6 3 0 0 0 0 0 0"
    ascent="812"
    descent="-212"
    x-height="792"
    bbox="-1.5 -263 1127 864"
    underline-thickness="50"
    underline-position="-100"
    unicode-range="U+0078-E62E"
  />
<missing-glyph horiz-adv-x="374" 
d="M34 0v682h272v-682h-272zM68 34h204v614h-204v-614z" />
    <glyph glyph-name=".notdef" horiz-adv-x="374" 
d="M34 0v682h272v-682h-272zM68 34h204v614h-204v-614z" />
    <glyph glyph-name=".null" horiz-adv-x="0" 
 />
    <glyph glyph-name="nonmarkingreturn" horiz-adv-x="341" 
 />
    <glyph glyph-name="x" unicode="x" horiz-adv-x="1001" 
d="M281 543q-27 -1 -53 -1h-83q-18 0 -36.5 -6t-32.5 -18.5t-23 -32t-9 -45.5v-76h912v41q0 16 -0.5 30t-0.5 18q0 13 -5 29t-17 29.5t-31.5 22.5t-49.5 9h-133v-97h-438v97zM955 310v-52q0 -23 0.5 -52t0.5 -58t-10.5 -47.5t-26 -30t-33 -16t-31.5 -4.5q-14 -1 -29.5 -0.5
t-29.5 0.5h-32l-45 128h-439l-44 -128h-29h-34q-20 0 -45 1q-25 0 -41 9.5t-25.5 23t-13.5 29.5t-4 30v167h911zM163 247q-12 0 -21 -8.5t-9 -21.5t9 -21.5t21 -8.5q13 0 22 8.5t9 21.5t-9 21.5t-22 8.5zM316 123q-8 -26 -14 -48q-5 -19 -10.5 -37t-7.5 -25t-3 -15t1 -14.5
t9.5 -10.5t21.5 -4h37h67h81h80h64h36q23 0 34 12t2 38q-5 13 -9.5 30.5t-9.5 34.5q-5 19 -11 39h-368zM336 498v228q0 11 2.5 23t10 21.5t20.5 15.5t34 6h188q31 0 51.5 -14.5t20.5 -52.5v-227h-327z" />
    <glyph glyph-name="uniE600" unicode="&#xe600;" horiz-adv-x="1027" 
d="M966 238q18 -6 26 -19.5t9.5 -29.5t-1.5 -31t-7 -24t-13 -20t-21.5 -18.5t-28 -9.5t-32.5 7q-10 5 -39 20.5t-69.5 37t-87 45.5t-90 47.5t-80.5 43t-58 30.5l-41 -89q-5 -13 -16 -20t-24 -9l-13 -29q10 -4 13.5 -13.5t-0.5 -19.5q-5 -9 -14.5 -13t-18.5 1l-226 102
q-10 5 -13.5 14.5t0.5 18.5q5 10 14.5 13.5t18.5 -1.5l13 29q-8 11 -9.5 24t4.5 26l123 271q5 13 16 20t24 9l13 28q-10 5 -13.5 14.5t1.5 18.5q4 10 13.5 13.5t18.5 -0.5l227 -103q9 -4 13 -13.5t-1 -18.5q-5 -10 -14 -13.5t-19 0.5l-13 -28q8 -11 9.5 -24t-4.5 -26
l-40 -89q22 -9 62 -24t87 -33t96.5 -37t92 -35.5t73 -28t39.5 -14.5zM392 -12q19 0 32 -13t13 -32v-35q0 -19 -13 -32t-32 -13h-284q-19 0 -32.5 13t-13.5 32v35q0 19 13.5 32t32.5 13h284z" />
    <glyph glyph-name="uniE601" unicode="&#xe601;" horiz-adv-x="1000" 
d="M852 -86h-672q-17 0 -32 8.5t-23.5 23t-8.5 32.5v671q0 27 19 45.5t45 18.5h672q26 0 45 -18.5t19 -45.5v-671q0 -18 -9 -32.5t-23.5 -23t-31.5 -8.5zM735 547h-438v-467h38v25h362v-24h38v466zM335 512h362v-372h-362v372zM367 198q119 72 180 167v-117q0 -47 -41 -47
q-24 0 -57 4q1 -4 2 -8.5t1.5 -8.5t1.5 -7.5t1.5 -7.5t1.5 -7q30 -1 58 -1q69 0 69 72v153h96v34h-96v72h-37v-72h-187v-34h163q-65 -94 -181 -159q16 -17 25 -33z" />
    <glyph glyph-name="uniE602" unicode="&#xe602;" 
d="M540 657q-95 0 -162.5 -67.5t-67.5 -162.5q0 -65 24.5 -142t55 -135t70 -118t55.5 -80t25 -31q9 11 24.5 31t55.5 80t70 118t55 135t25 142q0 47 -18 89.5t-49 73.5t-73.5 49t-89.5 18zM540 289q-57 0 -97.5 40.5t-40.5 97.5q0 37 18.5 69t50 50.5t69.5 18.5
q57 0 97.5 -40.5t40.5 -97.5t-40.5 -97.5t-97.5 -40.5z" />
    <glyph glyph-name="uniE603" unicode="&#xe603;" 
d="M896 -180h-768q-40 0 -68 28t-28 68v448q0 40 28 68t68 28h64l272 209q-2 8 -2 15q0 26 18.5 45t45 19t45.5 -19t19 -45q0 -16 -9 -31l251 -193h64q40 0 68 -28t28 -68v-448q0 -40 -28 -68t-68 -28zM546 25h129v25h-101v182h-28v-207zM362 25l22 63h87l24 -63h31l-84 207
h-30l-79 -207h29zM171 207.5q-9 -13.5 -9 -29.5q0 -7 2 -13.5t5.5 -12t9 -10.5t12.5 -9q12 -6 40 -12.5t37 -10.5q13 -5 18 -12q3 -4 4.5 -8t1.5 -9q-1 -10 -6 -17q-6 -9 -18 -13q-12 -5 -27 -5h-9l-8 2q-4 0 -7.5 1.5t-7.5 2.5q-2 1 -5 2l-4 4q-3 1 -5 3l-3 3q-2 2 -3 4
q-7 10 -9 26l-26 -2q1 -7 2 -13.5t3.5 -12.5t6.5 -11q2 -4 4.5 -7t5 -5.5t6.5 -4.5l6 -4q4 -2 7 -4q19 -8 47 -8q22 0 40 8q9 4 15.5 9.5t11.5 13.5q9 14 9 30q0 9 -2 16t-6 14q-9 12 -27 21q-6 3 -17.5 6t-28.5 7q-32 8 -41 15q-8 7 -8 18q0 13 11.5 22t36.5 9
q11 0 20 -2.5t15 -7.5q13 -10 15 -29l26 2q-1 18 -10.5 32t-26.5 21.5t-40 7.5q-7 0 -13.5 -1t-13 -2.5t-11.5 -3.5q-17 -7 -26 -20.5zM566 634q-9 -6 -19 -10t-21 -4q-32 0 -52 26l-250 -186h576zM862 50h-127v70h114v24h-114v63h122v25h-149v-207h154v25zM426 210
q5 -17 15 -43l21 -57h-70l23 60q7 20 11 40z" />
    <glyph glyph-name="uniE604" unicode="&#xe604;" 
d="M188 696q3 3 8.5 7t21 5t29.5 -12q105 -125 117 -163q0 -3 1 -12t-3 -24.5t-12 -23.5q-3 -2 -17 -12t-26.5 -19.5t-25.5 -26t-18 -33.5t1.5 -40t26.5 -47q38 -44 78 -85t89 -86t94 -71t77 -25q1 1 3.5 1.5t9.5 5.5t14 12t15.5 22t15.5 34l5 5q3 3 13.5 10t22.5 10t33 1
t44 -12q33 -14 60.5 -33.5t47.5 -43.5t20 -50.5t-25 -50.5q-115 -105 -235 -59q-28 11 -79.5 43t-121.5 87t-137 119.5t-128 148.5t-92 166q-4 4 -9 12t-11 34t-2 53.5t27.5 69t67.5 83.5v0z" />
    <glyph glyph-name="uniE605" unicode="&#xe605;" 
d="M512 680l102 -212l18 -37l41 -6l233 -35l-170 -169l-28 -28l6 -40l40 -236l-205 110l-37 20l-37 -20l-205 -110l40 236l6 39l-28 29l-170 169l233 35l41 6l18 37zM512 734q-12 0 -23.5 -4.5t-20.5 -12.5t-15 -19l-101 -211l-233 -34q-18 -3 -32 -14.5t-20 -28.5
q-12 -36 15 -64l171 -170l-39 -237q-7 -39 26 -62q8 -5 18 -8t19 -3q17 0 32 8l203 109l203 -109q15 -8 32 -8q20 1 37 11q33 23 26 62l-39 237l171 170q12 13 16 30.5t-1.5 34t-19.5 28t-32 14.5l-233 34l-101 211q-8 16 -24 26t-35 10z" />
    <glyph glyph-name="uniE606" unicode="&#xe606;" 
d="M1127 533l-663 -663l-331 331l663 663zM0 68l331 -331h-331v331z" />
    <glyph glyph-name="uniE607" unicode="&#xe607;" 
d="M512 748q-185 0 -316.5 -131.5t-131.5 -316.5t131.5 -316.5t316.5 -131.5t316.5 131.5t131.5 316.5t-131.5 316.5t-316.5 131.5zM512 -20q-20 0 -34 14t-14 34t14 34t34 14q13 0 24 -6.5t17.5 -17.5t6.5 -24q0 -32 -29 -45q-10 -3 -19 -3zM601 307q-19 -19 -28.5 -29
t-19 -26t-9.5 -28v-54q0 -13 -9.5 -22.5t-22.5 -9.5t-22.5 9.5t-9.5 22.5v54q0 25 13 50t25.5 39.5t36.5 38.5q18 17 26.5 26.5t17.5 23.5t9 24q0 13 -3.5 25.5t-9.5 23t-15 19.5t-19.5 15.5t-23 10t-25.5 3.5q-40 0 -68 -27.5t-28 -67.5q0 -13 -9.5 -22.5t-22.5 -9.5
q-7 0 -12.5 2.5t-10 7t-7 10.5t-2.5 12q0 32 12.5 61.5t34 51t51.5 34t62 12.5q66 0 113 -47t47 -114q0 -17 -5.5 -33t-18 -32.5t-21.5 -26.5t-26 -27z" />
    <glyph glyph-name="uniE608" unicode="&#xe608;" horiz-adv-x="1000" 
d="M977 -55q9 -65 9 -66h-934l2 19q2 18 6 44q-8 3 -8 17v23q0 2 0.5 6.5t7 18t17 27t34.5 31.5t57 33q14 7 60.5 35.5t97 51t104.5 33.5q-36 40 -80 161q-3 8 -5.5 16t-3.5 17t-2 15.5t-1 17.5t-0.5 16t0 18.5t0.5 19.5q0 9 -1 28.5t-1.5 34t0.5 31.5t4 28q19 73 64.5 103
t112.5 30q44 0 76.5 -11t60 -41.5t40.5 -80.5q4 -14 4.5 -35t-1 -49.5t-1.5 -37.5v-22v-22q0 -5 -0.5 -18.5t-1.5 -20.5t-3.5 -17.5t-5.5 -19.5q-42 -116 -80 -161q42 -8 85.5 -25t71 -33t59.5 -35.5t47 -26.5q33 -15 57 -33t35 -31.5t17.5 -27t7.5 -18t1 -6.5v-20
q0 -16 -9 -17z" />
    <glyph glyph-name="uniE609" unicode="&#xe609;" 
d="M957 408q-2 5 -5.5 9.5t-8.5 7.5t-11 4l-271 42l-120 259q-9 18 -29 18q-21 0 -29 -18l-122 -258l-271 -41q-19 -3 -25.5 -21.5t7.5 -32.5l196 -202l-47 -285q-3 -20 13.5 -31.5t33.5 -1.5l242 133l242 -134q7 -4 15 -4h1q13 0 22.5 9.5t9.5 22.5q0 6 -2 11l-45 279
l197 201q6 7 8 15.5t-1 17.5z" />
    <glyph glyph-name="uniE60A" unicode="&#xe60a;" horiz-adv-x="1028" 
d="M35 172q-32 34 -36 62t24 57q4 4 13 12t19 16.5t19 16.5t13 12q26 23 51 19.5t43 -23.5q10 -11 26.5 -27.5t33.5 -34.5t33 -34t25 -26q20 -20 46.5 -15.5t49.5 27.5q22 22 53.5 55t68.5 71.5t77 80.5t78 81.5t72 74.5t60 61q14 14 28.5 26t29.5 18.5t30.5 5.5t31.5 -11
q2 -2 11.5 -10.5t20.5 -18.5l20 -20l11 -12q14 -14 15 -29.5t-5 -31t-16.5 -29.5t-20.5 -24q-31 -31 -77 -77.5t-98 -100t-108 -110.5t-107.5 -110t-96 -98.5t-74.5 -74.5q-12 -12 -30.5 -18.5t-38.5 -7t-39.5 4.5t-32.5 17q-27 24 -57.5 54t-60.5 61t-57 59.5t-48 50.5z
" />
    <glyph glyph-name="uniE60B" unicode="&#xe60b;" 
d="M866 71q29 -30 42.5 -55t-4.5 -57q-4 -6 -11 -14.5t-14.5 -16.5t-15 -14.5t-12.5 -9.5q-25 -15 -59 -8t-61 34l-42 42l-56 56l-66 66l-72 72l-128 -128q-59 -59 -96 -97q-38 -38 -75.5 -47t-66.5 17l-7 7l-11 11l-11 11q-6 6 -7 8q-11 14 -13 28.5t2.5 28.5t13.5 27
t20 24q9 8 32 30l54 56q33 32 73.5 72t84.5 84q-48 48 -91.5 91t-78 77t-56.5 55.5t-27 26.5q-26 26 -26.5 51.5t17.5 51.5q8 10 23 23.5t21 17.5q30 20 54 17.5t48 -27.5l31 -31q23 -23 57 -56t76.5 -74.5t88.5 -86.5q38 38 74.5 74t68 67.5t57 56.5t42.5 42q24 23 52 30.5
t54 -12.5q1 -1 6.5 -5t11 -9t10.5 -9.5t7 -5.5q27 -26 26.5 -56.5t-26.5 -56.5q-18 -18 -44.5 -45t-59 -59t-68.5 -68l-76 -76q37 -36 72.5 -70.5t66 -64.5t55 -55t40.5 -41z" />
    <glyph glyph-name="uniE60C" unicode="&#xe60c;" 
d="M511 -148q-91 0 -174 35.5t-143 95.5t-95.5 143t-35.5 174t35.5 174t95.5 143t143 95.5t174 35.5t174 -35.5t143 -95.5t95.5 -143t35.5 -174q0 -46 -9 -90.5t-26 -84t-41.5 -76t-55 -66.5t-66.5 -54.5t-76 -41.5t-84 -26t-90 -9zM511 684q-104 0 -192.5 -51.5t-140 -140
t-51.5 -192.5t51.5 -192.5t140 -140t192.5 -51.5t192.5 51.5t140 140t51.5 192.5q0 39 -8 77t-22.5 72t-35.5 65.5t-46.5 57t-57 46.5t-65.5 35.5t-72 22.5t-77 8zM512 39q-67 0 -126.5 29t-100.5 81q-8 11 -6.5 24t12.5 21q2 2 5.5 4t7 2.5t7 0.5t7 -1t6.5 -2.5t6 -3.5
t5 -5q33 -41 79 -63.5t98 -22.5q53 0 99.5 22.5t78.5 64.5q8 11 21 12.5t23.5 -6.5t12.5 -21t-7 -24q-27 -35 -63 -60.5t-78 -38.5t-87 -13zM368 297q-13 0 -24 6.5t-17.5 17.5t-6.5 24v64q0 20 14 34t34 14q13 0 24 -6.5t17.5 -17.5t6.5 -24v-64q0 -13 -6.5 -24
t-17.5 -17.5t-24 -6.5zM656 297q-20 0 -34 14t-14 34v64q0 8 2.5 15t7 13t10.5 10.5t13 7t15 2.5q20 0 34 -14t14 -34v-64q0 -20 -14 -34t-34 -14z" />
    <glyph glyph-name="uniE60D" unicode="&#xe60d;" 
d="M531 -77q-108 0 -200 53.5t-145.5 145t-53.5 200t53.5 200.5t145.5 145.5t200 53.5t200 -53.5t145.5 -145.5t53.5 -200q0 -81 -31.5 -155t-85 -127.5t-127.5 -85t-155 -31.5zM531 664q-70 0 -133 -27.5t-109 -73t-73 -109t-27 -132.5q0 -93 46 -172t124.5 -124.5
t171.5 -45.5t171.5 45.5t124.5 124.5t46 171.5t-46 171.5t-124.5 125t-171.5 46zM532 235q60 0 113 -26t90 -74q5 -6 6 -13.5t-2 -14.5t-9 -12t-13.5 -6t-14.5 2t-12 9q-9 12 -20.5 23t-23.5 19.5t-26 15t-28 11t-29.5 7t-30.5 2.5q-47 0 -88 -20t-69 -57q-8 -9 -19.5 -10.5
t-21 6t-11 19t6.5 21.5q36 46 89 72t113 26zM404 319q-18 0 -30.5 12.5t-12.5 30.5v57q0 17 12.5 29.5t30.5 12.5q7 0 13.5 -2t11.5 -6t9 -9t6 -12t2 -13v-57q0 -4 -0.5 -8t-2 -7.5t-3 -6.5t-4 -6t-5.5 -5.5t-6 -4t-6.5 -3t-7.5 -2t-7 -0.5zM660 319q-18 0 -30.5 12.5
t-12.5 30.5v57q0 17 12.5 29.5t30.5 12.5t30.5 -12.5t12.5 -29.5v-57q0 -12 -6 -22t-15.5 -15.5t-21.5 -5.5zM660 319z" />
    <glyph glyph-name="uniE60E" unicode="&#xe60e;" 
d="M799 572q6 5 12 9l10 8q5 4 9 7q10 8 22.5 6.5t20.5 -9.5t9 -21.5t-7 -21.5q-3 -3 -8.5 -8t-10.5 -10q-6 -5 -13 -11q13 -16 26 -42t24 -57.5t18 -66.5t7 -69q0 -84 -32 -157.5t-86.5 -128t-128 -86.5t-157.5 -32t-157.5 32t-128 86.5t-86.5 128t-32 157.5t32 157.5
t86.5 128t128 86.5t157.5 32q86 0 160 -32.5t125 -85.5zM515 617q-69 0 -129.5 -26t-105.5 -71t-71 -105.5t-26 -129.5t26 -129.5t71 -105.5t105.5 -71t129.5 -26t129.5 26t105.5 71t71 105.5t26 129.5t-26 129.5t-71 105.5t-105.5 71t-129.5 26zM582 751q0 -14 -7 -25.5
t-17 -19.5t-21.5 -12t-21.5 -4q-11 0 -23 4t-22 12t-16.5 19t-6.5 26v56h135v-56zM533 275q-8 -6 -17 -5.5t-15 8.5q-6 7 -5 16t9 16l204 173q7 5 17 5t16 -7q6 -8 5 -17t-10 -17zM545 560q0 -12 -8.5 -21t-21.5 -9t-22 9t-9 21q0 13 9 22t22 9t21.5 -9t8.5 -22zM286 286
q0 -13 -9 -22t-22 -9t-21.5 9t-8.5 22t8.5 21.5t21.5 8.5t22 -8.5t9 -21.5zM544 19q0 -13 -8.5 -22t-21.5 -9t-22 9t-9 22t9 21.5t22 8.5t21.5 -8.5t8.5 -21.5zM803 286q0 -13 -9 -22t-21 -9q-13 0 -22 9t-9 22t9 21.5t22 8.5q12 0 21 -8.5t9 -21.5z" />
    <glyph glyph-name="uniE60F" unicode="&#xe60f;" 
d="M797 207q-47 0 -85.5 -25t-57.5 -65l-268 53q-1 5 -2 11t-2.5 11t-3.5 10.5t-4 10.5l179 193q31 -14 64 -14q26 0 50.5 8t44 23t34.5 34.5t23 44t8 49.5q0 44 -21.5 80.5t-58 58t-80 21.5t-80 -21.5t-58 -58t-21.5 -80.5q0 -9 1.5 -19t3.5 -19t5.5 -18t8 -17t9.5 -16
l-167 -181q-19 14 -42.5 21.5t-48.5 7.5q-44 0 -80.5 -21t-58 -58t-21.5 -80q0 -66 47 -112.5t113 -46.5q47 0 86 25.5t58 66.5l267 -52q6 -61 51.5 -102t106.5 -41q66 0 112.5 46.5t46.5 112.5t-46.5 112.5t-112.5 46.5zM617 624q15 0 28.5 -5.5t23.5 -15.5t15.5 -23.5
t5.5 -28.5q0 -30 -21 -51t-52 -21q-19 0 -36 9.5t-26.5 26.5t-9.5 36q0 31 21 52t51 21zM228 79q-30 0 -51.5 21t-21.5 51t21.5 51.5t51.5 21.5t51 -21.5t21 -51.5t-21 -51t-51 -21zM797 -25q-30 0 -51.5 21.5t-21.5 51.5t21.5 51t51.5 21t51.5 -21t21.5 -51t-21.5 -51.5
t-51.5 -21.5z" />
    <glyph glyph-name="uniE610" unicode="&#xe610;" 
d="M160 668h704q20 0 34 14t14 34t-14 34t-34 14h-704q-20 0 -34 -14t-14 -34t14 -34t34 -14zM934 620h-844l-90 -240q0 -53 37.5 -90.5t90.5 -37.5t90.5 37.5t37.5 90.5q0 -53 37.5 -90.5t90.5 -37.5t90.5 37.5t37.5 90.5q0 -53 37.5 -90.5t90.5 -37.5t90.5 37.5t37.5 90.5
q0 -53 37.5 -90.5t90.5 -37.5t90.5 37.5t37.5 90.5zM880 205q-6 0 -14 2h-1h-2q-1 0 -3 0.5t-3 1.5q-14 3 -25 7v-236h-640v236l-6 -2q-3 -1 -6.5 -2t-6.5 -2t-6 -1q-1 -1 -3 -1.5t-3 -0.5h-2h-1q-9 -2 -14 -2q-8 -1 -16 -1q-16 0 -32 3v-323q0 -20 14 -34t34 -14h736
q20 0 34 14t14 34v323q-16 -3 -32 -3h-8q-4 0 -8 1z" />
    <glyph glyph-name="uniE611" unicode="&#xe611;" horiz-adv-x="1025" 
d="M512 -212q-104 0 -199 40.5t-163.5 109t-109 163.5t-40.5 199t40.5 199t109 163.5t163.5 109t199 40.5t199 -40.5t163.5 -109t109 -163.5t40.5 -199q0 -188 -122 -332q-116 -136 -292 -171q-49 -9 -98 -9zM512 -138q89 0 170 34.5t140 93.5t93.5 140t34.5 170t-34.5 170
t-93.5 140t-140 93.5t-170 34.5q-71 0 -138 -22t-121 -62.5t-94.5 -94.5t-62.5 -121t-22 -138q0 -89 34.5 -170t93.5 -140t140 -93.5t170 -34.5zM512 10l-112 144l-112 146h146v290h156v-290h146l-112 -146z" />
    <glyph glyph-name="uniE612" unicode="&#xe612;" 
d="M931 -212h-290q-37 0 -65 38t-28 79v265q0 39 27 66.5t66 27.5h290q38 0 65.5 -27.5t27.5 -66.5v-288q0 -26 -12.5 -47.5t-34 -34t-46.5 -12.5zM976 167q0 13 -6.5 24t-17.5 17.5t-24 6.5h-285q-20 0 -34 -14t-14 -34v-286q0 -19 14 -33t34 -14h285q13 0 24 6t17.5 17
t6.5 24v286zM931 336h-290q-37 0 -65 38t-28 79v265q0 19 7 36t19.5 29.5t30 20t36.5 7.5h290q25 0 46.5 -12.5t34 -34t12.5 -46.5v-289q0 -8 -1 -15.5t-3.5 -14t-6 -13t-7.5 -12.5t-9 -11t-11 -9t-12.5 -7.5t-13.5 -6t-14.5 -3.5t-14.5 -1zM976 715q0 19 -14 33t-34 14
h-285q-13 0 -24 -6.5t-17.5 -17.5t-6.5 -23v-286q0 -6 1.5 -11t3.5 -10t5.5 -9t7.5 -7.5t9 -5.5t10 -3.5t11 -1.5h285q13 0 24 6.5t17.5 17.5t6.5 24v286zM383 -212h-290q-37 0 -65 38t-28 79v265q0 39 27.5 66.5t65.5 27.5h290q39 0 66 -27.5t27 -66.5v-288q0 -13 -3 -25
t-9 -22.5t-15 -19t-19 -14.5t-22 -9.5t-25 -3.5zM429 167q0 8 -2.5 15t-7 13t-10.5 10.5t-13 7t-15 2.5h-286q-19 0 -33 -14t-14 -34v-286q0 -19 14 -33t33 -14h286q20 0 34 14t14 33v286zM383 336h-290q-24 0 -46 18.5t-34.5 45.5t-12.5 53v265q0 25 12.5 46.5t34 34
t46.5 12.5h290q25 0 46.5 -12.5t34 -34t12.5 -46.5v-289q0 -8 -1.5 -16.5t-4 -16t-6.5 -14.5t-9.5 -13t-11.5 -11t-13 -9.5t-14.5 -7t-15.5 -4t-17 -1.5zM429 715q0 19 -14 33t-34 14h-286q-6 0 -12.5 -1.5t-11.5 -4.5t-9.5 -7.5t-7.5 -10t-4.5 -11.5t-1.5 -12v-286
q0 -20 14 -34t33 -14h286q13 0 24 6.5t17.5 17.5t6.5 24v286z" />
    <glyph glyph-name="uniE613" unicode="&#xe613;" 
d="M913 -148h-223v67h178q10 0 16.5 6.5t6.5 16.5v178h67v-223q0 -19 -13 -32t-32 -13zM936 277h-850q-9 0 -16 3t-7 8v22q0 5 7 8.5t16 3.5h850q9 0 15.5 -3.5t6.5 -8.5v-22q0 -2 -2 -4t-5 -3.5t-7 -2.5t-8 -1zM891 657q0 9 -6.5 15.5t-16.5 6.5h-178v67h223q12 0 22.5 -6
t16.5 -16t6 -22v-224h-67v179zM131 657v-179h-68v224q0 12 6 22t16.5 16t22.5 6h224v-67h-179q-9 0 -15.5 -6.5t-6.5 -15.5zM131 -58q0 -10 6.5 -16.5t15.5 -6.5h179v-67h-224q-12 0 -22.5 6t-16.5 16.5t-6 22.5v223h68v-178z" />
    <glyph glyph-name="uniE614" unicode="&#xe614;" 
d="M836 749q26 0 49 -10.5t40.5 -28t28 -40.5t10.5 -49v-642q0 -26 -10.5 -49t-28 -40.5t-40.5 -28t-49 -10.5h-449q-27 0 -50 10.5t-40 28t-27.5 40.5t-10.5 49v193h128v-193h449v642h-449v-193h-128v193q0 26 10.5 49t27.5 40.5t40 28t50 10.5h449zM513 198q0 19 -9.5 28
t-24.5 9h-379q-14 0 -24.5 8t-10.5 26v53q0 29 9 37t36 8h31q25 0 58.5 -0.5t73.5 -1t77.5 -1.5t69.5 -1h51q23 0 32.5 16.5t9.5 36.5v49q0 20 8.5 25.5t26 -9t47.5 -33t62 -38t63 -38.5t49 -34q14 -11 14 -30.5t-11 -29.5q-16 -14 -44.5 -32t-59.5 -37t-60.5 -37t-48.5 -34
q-23 -19 -34.5 -19.5t-11.5 29.5v50z" />
    <glyph glyph-name="uniE615" unicode="&#xe615;" 
d="M585 666h-439q-60 0 -103 -43t-43 -104v-438q0 -61 43 -104t103 -43h439q61 0 103.5 43t42.5 104v219v219q0 61 -42.5 104t-103.5 43zM731 300l293 -293v586z" />
    <glyph glyph-name="uniE616" unicode="&#xe616;" 
d="M346 5q20 0 37 -7t30 -20t20.5 -30.5t7.5 -37t-7.5 -36.5t-20.5 -30t-30 -20.5t-37 -7.5t-37.5 7.5t-30.5 20.5t-20.5 30t-7.5 36.5t7.5 37t20.5 30.5t30.5 20t37.5 7zM772.5 3q19.5 0 37 -7t30.5 -20t20.5 -30.5t7.5 -37t-7.5 -36.5t-20.5 -30t-30.5 -20.5t-37 -7.5
t-37 7.5t-30.5 20.5t-20.5 30t-7.5 36.5t7.5 37t20.5 30.5t30.5 20t37 7zM944 585q29 0 45 -8t22.5 -19t6 -24t-3.5 -22t-13.5 -38t-22 -63t-23.5 -68t-19 -53q-13 -41 -33 -57t-50 -16h-36h-65h-86h-97h-254l15 -92h517q49 0 49 -42q0 -21 -9.5 -35.5t-38.5 -14.5h-49h-94
h-119h-120h-99h-56q-20 0 -34 9t-23 24t-15 32.5t-9 32.5q-1 6 -5.5 29.5t-11 59t-15 79t-16.5 87.5q-19 103 -44 230h-77q-15 0 -25 8t-17 18.5t-9.5 23t-2.5 22.5q0 21 14 34t37 13h22h21h26h35q20 0 32.5 -6t19.5 -15.5t10 -19.5t5 -17q2 -8 4.5 -23t4.5 -30q3 -19 6 -39
h700zM867 617h-374l135 136q23 23 51.5 23.5t51.5 -22.5z" />
    <glyph glyph-name="uniE617" unicode="&#xe617;" horiz-adv-x="1040" 
d="M302 287v84q0 17 -12.5 29.5t-30.5 12.5q-12 0 -22 -5.5t-15.5 -15.5t-5.5 -21v-84q0 -17 12.5 -29.5t30.5 -12.5t30.5 12.5t12.5 29.5zM865 224q0 -13 -43 -18.5t-86 0t-43 18.5v63h-348v-64q0 -4 -4.5 -7t-13 -5.5t-19.5 -4t-23.5 -2.5t-25.5 -1t-25.5 1t-23.5 2.5
t-19.5 4t-13 5.5t-4.5 7v64h-174v-332q0 -39 25 -60t39.5 -23.5t24.5 -2.5h862q1 0 4.5 0.5t12.5 2t17.5 4.5t19 9.5t18 15t12.5 22.5t5 32v332h-174v-63zM950 623h-141l-30 96l-3 7q-1 5 -8 17.5t-16 22t-26.5 17.5t-39.5 8h-334q-21 0 -38.5 -7.5t-27 -18t-16 -21
t-9.5 -18.5l-2 -7l-30 -96h-141q-25 0 -43 -9t-26.5 -21.5t-13 -25t-5.5 -21.5l-1 -9v-166h174v64q0 10 27 15t59 5t59 -5.5t27 -14.5v-64h348v65q0 12 43 17t86 0t43 -17v-65h174v166q0 4 -0.5 9.5t-5.5 20.5t-13.5 26t-27 20.5t-42.5 9.5zM302 623q0 22 10 37.5t27 24.5
t46 14t59 6.5t75 1.5q55 0 91.5 -3t66.5 -12t44.5 -26t14.5 -43h-434zM822 287v84q0 17 -12.5 29.5t-30.5 12.5t-30.5 -12.5t-12.5 -29.5v-84q0 -17 12.5 -29.5t30.5 -12.5q30 0 40 27q3 8 3 15z" />
    <glyph glyph-name="uniE618" unicode="&#xe618;" 
d="M332 649.5q-20 8.5 -35 -6.5l-192 -192q-6 -7 -8 -15t0 -16t8 -15q10 -9 23 -9t23 9l137 138v-531q0 -13 9.5 -22.5t22.5 -9.5t22.5 9.5t9.5 22.5v608q0 21 -20 29.5zM919 195q-7 6 -15 8t-16 0t-15 -8l-105 -106v531q0 13 -9.5 22.5t-22.5 9.5t-22.5 -9.5t-9.5 -22.5
v-608q0 -6 2.5 -12t7 -10.5t10.5 -7.5q3 -1 6 -1.5t6 -0.5q13 0 23 9l160 160q3 3 5 7t3 8t1 8t-1 8t-3 8t-5 7z" />
    <glyph glyph-name="uniE619" unicode="&#xe619;" 
d="M109 620q20 24 41 46q8 10 16 19t17 17q17 17 26 25q5 3 9 6t8.5 6t9.5 6q14 8 38 8h486q8 0 16.5 -1.5t17.5 -5.5q19 -6 37 -25q3 -4 6.5 -8t8 -9.5t9.5 -10.5q20 -23 28 -33q16 -19 32 -40h-806zM1024 283q-1 -37 -24 -61q-23 -25 -67 -25h-833q-43 0 -68 25t-25 61
v161q0 36 22 62t73 26h830q17 0 30.5 -3t24 -8.5t17.5 -14.5q20 -26 20 -62v-161zM599 364q0 14 -7 21q-4 3 -9 4.5t-11 1.5h-114q-12 -1 -20 -8q-8 -8 -8 -19q1 -15 8.5 -21.5t19.5 -6.5h114q26 0 27 28zM1021 -125q0 -12 -3.5 -23t-9.5 -20.5t-15 -18.5q-28 -26 -71 -25
h-825q-36 0 -65 25q-15 13 -22 30.5t-7 40.5v151q0 37 23 62q12 13 30.5 19.5t43.5 6.5h827q47 -1 70 -26q24 -25 24 -61v-161zM596 -45q0 11 -7.5 19t-19.5 8h-114q-12 0 -20 -8t-8 -19q0 -6 2 -10.5t6 -8.5q8 -8 20 -8h114q12 0 20 8q2 2 3.5 5t2.5 6.5t1 7.5z" />
    <glyph glyph-name="uniE61A" unicode="&#xe61a;" 
d="M353 -20q-26 0 -45 -18.5t-19 -45t19 -45.5t45.5 -19t45 19t18.5 45.5t-18.5 45t-45.5 18.5zM801 -20q-26 0 -45 -18.5t-19 -45t19 -45.5t45.5 -19t45 19t18.5 45.5t-18.5 45t-45.5 18.5zM937 624q-25 28 -63 28h-641l-2 13q-3 23 -16.5 42t-34 30t-43.5 11h-40
q-13 0 -22.5 -9.5t-9.5 -22.5t9.5 -22.5t22.5 -9.5h40q5 0 10.5 -2t9.5 -6t7 -9.5t3 -10.5l31 -179l54 -382q3 -17 11 -32.5t20.5 -26.5t28.5 -17.5t33 -6.5h520q13 0 22.5 9.5t9.5 22.5t-9.5 22.5t-22.5 9.5h-520q-7 0 -13.5 3.5t-10.5 10t-5 13.5l-5 38l507 31
q17 0 33 6.5t28.5 17.5t20.5 26t10 32l51 288q3 23 -3.5 44.5t-20.5 37.5z" />
    <glyph glyph-name="uniE61B" unicode="&#xe61b;" 
d="M911 229h-752v-192h752q16 0 27.5 11.5t11.5 26.5v116q0 15 -11.5 26.5t-27.5 11.5zM680 306v115q0 16 -11.5 27t-27.5 11h-482v-192h482q11 0 19.5 5.5t14 14t5.5 19.5zM412 536v115q0 16 -11 27.5t-27 11.5h-215v-192h215q8 0 15 3t12 8t8 12t3 15zM116 690h-72v-780
h939v78h-867v702zM82 690z" />
    <glyph glyph-name="uniE61C" unicode="&#xe61c;" 
d="M288 524h-128q-13 0 -22.5 -9.5t-9.5 -22.5v-544q0 -13 9.5 -22.5t22.5 -9.5h128q13 0 22.5 9.5t9.5 22.5v544q0 13 -9.5 22.5t-22.5 9.5zM576 332h-128q-13 0 -22.5 -9.5t-9.5 -22.5v-352q0 -13 9.5 -22.5t22.5 -9.5h128q13 0 22.5 9.5t9.5 22.5v352q0 13 -9.5 22.5
t-22.5 9.5zM864 684h-128q-13 0 -22.5 -9.5t-9.5 -22.5v-704q0 -13 9.5 -22.5t22.5 -9.5h128q13 0 22.5 9.5t9.5 22.5v704q0 13 -9.5 22.5t-22.5 9.5z" />
    <glyph glyph-name="uniE61D" unicode="&#xe61d;" 
d="M512 -191q-223 0 -325 80.5t-102 247.5q0 137 93 263t224 172h220q131 -46 224 -172t93 -263q0 -167 -102 -247.5t-325 -80.5zM630 172q10 0 18.5 5t13 13.5t4.5 17.5q0 15 -10.5 26t-25.5 11h-73v1v1l86 88q17 19 -7 43q-7 7 -16.5 10.5t-18.5 2t-14 -7.5l-74 -79
l-80 80q-5 5 -12.5 5.5t-16 -3t-15.5 -9.5q-10 -11 -12.5 -24t5.5 -20l81 -82q-2 -3 -3 -6h-66v0q-10 0 -18.5 -5t-13 -13.5t-4.5 -18.5q0 -7 2.5 -13.5t7.5 -11.5t12 -8t14 -3v0h73v-36h-73v0q-7 0 -14 -3t-12 -8t-7.5 -11.5t-2.5 -14.5q0 -15 10.5 -25.5t25.5 -10.5v0h73
v-36v-9q0 -19 13 -32.5t32 -13.5t32 13.5t13 32.5q0 4 -1 9h1v36h73q15 0 25.5 11t10.5 25.5t-10.5 25.5t-25.5 11h-73v36h73zM684 717l-7 -10h-1l-64 -81h-218l-64 81q-1 0 -2 1l-7 9l2 2l-1 2l-1 5q0 19 18 25v2q10 2 27 5t60.5 8t76.5 5q16 0 33.5 -0.5t33 -2.5t30.5 -4
t26.5 -4t21 -3.5t13.5 -2.5l5 -1l1 -2q8 -3 13 -9.5t5 -15.5q0 -2 -1 -5l-1 -1z" />
    <glyph glyph-name="uniE61E" unicode="&#xe61e;" 
d="M891 -119h-751q-14 0 -24.5 10.5t-10.5 23.5v213q0 26 11 37t25 -2l102 -79q33 -29 45 -14l117 141q29 36 45 22l101 -87q40 -34 53 -18l249 301q17 18 33.5 22.5t27 -6.5t10.5 -34v-496q0 -5 -1.5 -10t-4.5 -9.5t-7.5 -8t-9.5 -5t-10 -1.5zM599 250q-15 -19 -38 -21
q-23 -3 -41 12l-113 96l-114 -150q-2 -3 -4 -5t-5 -4l-4 -4q-3 -2 -6 -3.5t-6 -2.5t-6 -1.5t-6.5 -1t-6.5 -0.5q-9 0 -18 3t-17 9l-99 81q-17 15 -19.5 37.5t11.5 40.5q10 12 23.5 17t28 2.5t26.5 -11.5l55 -45l114 151q14 18 37.5 21t41.5 -13l114 -95l147 184l-41 34
q-22 18 -18 35t32 23l213 45q28 6 35 -6t-10 -34z" />
    <glyph glyph-name="uniE61F" unicode="&#xe61f;" 
d="M467 266l397 84q9 -42 9 -84q0 -83 -32 -158t-86.5 -129.5t-129.5 -86.5t-158 -32q-110 0 -203.5 54.5t-147.5 148t-54 203.5q0 109 53.5 202t145.5 147.5t201 55.5zM660 738l-101 -393l397 85q-24 113 -104 196.5t-192 111.5zM509 743h-3h-3l6 -406l100 393
q-16 4 -32.5 7t-33.5 4.5t-34 1.5z" />
    <glyph glyph-name="uniE620" unicode="&#xe620;" 
d="M846 573h-24h-128q-4 34 -17 63.5t-34 52.5q-25 28 -59 44t-72 16v0q-77 0 -130 -60q-14 -15 -24.5 -33.5t-17.5 -39.5t-9 -43h-152l-65 -723h398h399zM420 655v0q18 20 42 32q24 11 50 11v0q13 0 26 -3t25 -8q12 -6 22.5 -14t19.5 -18v0q10 -12 18 -26t13 -29.5t7 -32.5
l3 -30h-268l4 30q6 52 38 88zM170 -99l56 621h105h21h321h21h105l56 -621h-343h-342zM385 451q-15 10 -33 10q-12 0 -23 -4q-16 -7 -26 -22t-10 -33q0 -12 4 -23q7 -16 22 -26t33 -10q6 0 12 1t11 3q16 7 26 22t10 33q0 6 -1 12t-4 11q-6 16 -21 26zM392 385q-5 -12 -16 -19
q-3 -3 -7 -4.5t-8.5 -2.5t-9 -1t-8.5 1t-8 3q-12 5 -19 16q-8 11 -8 24q0 9 3 17q6 12 16 19q2 2 5 3l4 2q3 1 6 1l4 2h6q9 0 17 -4q12 -5 19 -15q3 -4 4.5 -8t2.5 -8t1 -9q0 -9 -4 -17zM706 451q-15 10 -33 10q-12 0 -23 -4q-4 -2 -8 -4.5t-7 -5t-6 -5.5t-5 -7
q-10 -15 -10 -33q0 -6 1 -12t3 -11q7 -16 22 -26q7 -5 15.5 -7.5t17.5 -2.5q12 0 23 4q16 7 26 22t10 33q0 12 -5 23q-7 16 -21 26zM713 385q-5 -12 -16 -19q-11 -8 -24 -8h-6l-6 2q-3 0 -5 2q-12 5 -20 16q-3 5 -5 11t-2 13q0 9 3 17q5 12 16 19q11 8 25 8q9 0 17 -4
q3 -1 5.5 -2.5t5 -3.5t4.5 -4.5t4 -4.5q4 -6 6 -12t2 -13q0 -9 -4 -17z" />
    <glyph glyph-name="uniE621" unicode="&#xe621;" 
d="M836 744q-28 0 -53 -11t-43.5 -29t-29 -43.5t-10.5 -53.5q0 -19 5 -37l-399 -168q-12 21 -30 36t-40.5 24t-47.5 9q-57 0 -97 -40t-40 -97t40 -97t97 -40q59 0 100 44l257 -185q-16 -30 -16 -63q0 -57 40 -97t96 -40q37 0 68.5 18.5t50 49.5t18.5 69q0 56 -40 96t-97 40
q-60 0 -101 -45l-256 185q5 9 8.5 19.5t5.5 22t2 23.5q0 18 -5 37l399 167q19 -31 50 -49t68 -18q57 0 97 40t40 96.5t-40 96.5t-97 40zM665 95q43 0 73 -30t30 -72.5t-30 -72.5t-72.5 -30t-72.5 30t-30 73q0 55 47 86q26 16 55 16zM187.5 231q-42.5 0 -72.5 30.5t-30 73
t30 72.5t72.5 30t72.5 -30t30 -72.5t-30 -73t-72.5 -30.5zM836 505q-42 0 -72 30t-30 72.5t30 72.5t72 30t72 -30t30 -72.5t-30 -72.5t-72 -30z" />
    <glyph glyph-name="uniE622" unicode="&#xe622;" 
d="M427 537h198q12 0 20 6.5t8 15.5t-8 15.5t-20 6.5h-198q-6 0 -11 -2t-8.5 -4.5t-6 -6.5t-2.5 -8.5t2.5 -8.5t6 -7t8.5 -5t11 -2zM926 -107h-801q-4 0 -8 2t-6.5 5.5t-2.5 7.5v816q0 6 5 10.5t12 4.5h801q3 0 5.5 -0.5t4.5 -2t3.5 -3.5t2.5 -4t1 -5v-816q0 -3 -1 -5
t-2.5 -4t-3.5 -3.5t-4.5 -2t-5.5 -0.5zM139 763q-12 0 -23 -4t-18.5 -11.5t-12 -17t-4.5 -20.5v-788q0 -22 17 -37.5t41 -15.5h773q24 0 41 15.5t17 37.5v788q0 22 -17 37.5t-41 15.5h-773zM279 405h-24q-8 0 -14 -4.5t-6 -11.5q0 -3 1.5 -5.5t4.5 -4.5t6.5 -3.5t7.5 -1.5
h24q8 0 14 4.5t6 10.5q0 16 -20 16zM279 251h-24q-8 0 -14 -4.5t-6 -10.5t6 -10.5t14 -4.5h24q8 0 14 4.5t6 10.5t-6 10.5t-14 4.5zM279 98h-24q-8 0 -14 -4.5t-6 -11.5q0 -4 3 -7.5t7.5 -5.5t9.5 -2h24q3 0 6 1t5.5 2t4.5 3t3 4.5t1 4.5q0 7 -6 11.5t-14 4.5zM777 98h-415
q-8 0 -14 -4.5t-6 -11t6 -11t14 -4.5h415q6 0 10.5 2t7 5.5t2.5 7.5q0 3 -1.5 6t-4 5t-6.5 3.5t-8 1.5zM777 251h-415q-5 0 -9.5 -2t-7.5 -5.5t-3 -8.5q0 -3 1.5 -5.5t4.5 -4.5t6.5 -3.5t7.5 -1.5h415q9 0 14.5 4.5t5.5 10.5q0 3 -1.5 6t-4 5t-6.5 3.5t-8 1.5zM777 404h-415
q-5 0 -9.5 -2t-7.5 -5.5t-3 -7.5q0 -6 6 -10.5t14 -4.5h415q6 0 10.5 2t7 5.5t2.5 7.5q0 3 -1.5 6t-4 5t-6.5 3t-8 1z" />
    <glyph glyph-name="uniE623" unicode="&#xe623;" 
d="M513 707q37 0 76.5 -15.5t68.5 -38t47.5 -50.5t18.5 -52v-140q0 -52 -24 -116.5t-67 -99.5q-18 -14 -15 -36q1 -11 7.5 -19.5t15.5 -12.5l247 -117q9 -4 18.5 -10.5t13.5 -11.5v-81q0 -6 -4.5 -10.5t-11.5 -4.5h-392h-392q-3 0 -5.5 1.5t-5 3.5t-3.5 4.5t-1 5.5v81
q9 12 33 23l246 116q4 2 8 5.5t7 7.5t5 9t3 10q1 10 -3 20t-12 16q-43 35 -67 99.5t-24 116.5v140q0 33 30.5 69t80.5 61.5t100 25.5h1zM513 747h-1q-45 0 -91.5 -17.5t-81.5 -45t-57 -63.5t-22 -70v-140q0 -57 26.5 -131t79.5 -116l-246 -117q-6 -2 -15.5 -7t-25 -20
t-15.5 -29v-84q0 -23 16.5 -39.5t39.5 -16.5h392h392q12 0 22 4.5t17.5 12t12 18t4.5 21.5v84q0 14 -14 28t-28 21l-14 7l-246 117q53 42 80 116t27 131v140q0 34 -22.5 70t-57.5 63.5t-81 45t-91 17.5z" />
    <glyph glyph-name="uniE624" unicode="&#xe624;" 
d="M901 378l-328 306q-32 29 -66 30q-10 0 -19 -2.5t-17 -6t-15.5 -9t-13.5 -11.5l-316 -307q-26 -26 -12 -61q7 -15 21 -24.5t31 -9.5h43v-311q0 -12 3.5 -23.5t9 -21t13.5 -17.5t18 -14t21 -9t23 -3h152v254h127v-254h152q37 0 62.5 26t25.5 62v311h45q16 0 30 9.5
t21 24.5q4 11 4.5 21.5t-4 21t-11.5 18.5zM868 336q-1 -3 -5.5 -4t-17.5 -1h-77v-359q0 -17 -11.5 -28.5t-28.5 -11.5h-104v214q0 17 -10.5 28.5t-25.5 11.5h-151q-15 0 -25.5 -11.5t-10.5 -28.5v-214h-104q-6 0 -12 2t-11 5.5t-9 8.5t-6 11t-2 13v359h-91q-6 0 -8 5t2 9
l317 307q6 6 13.5 9.5t16.5 3.5q18 0 30 -14l329 -306q2 -2 2.5 -4.5t-0.5 -4.5z" />
    <glyph glyph-name="uniE625" unicode="&#xe625;" 
d="M829 688l-7 10h-610l-7 -9q-55 -70 -86 -133t-36.5 -109.5t-1.5 -76.5t16 -55q10 -20 25 -37t33 -28.5t38.5 -18t41.5 -6.5h5q86 4 145 65q10 -11 21.5 -20.5t28 -19.5t38 -15.5t45.5 -5.5q17 0 33 3t29 8t24 11t20.5 14t16.5 14.5t13 13.5q31 -26 71 -46t82 -20
q61 0 104 50q25 30 31.5 72t-4 88t-25 86.5t-36.5 80.5t-31.5 56.5t-16.5 27.5zM875 308q-10 -11 -20.5 -18.5t-22.5 -11t-26 -3.5q-27 0 -59 15.5t-48.5 28t-28.5 24.5v163v1q0 10 -7 17t-17 7q-5 0 -9.5 -1.5t-7.5 -5t-5 -8t-2 -9.5v-177q-39 -53 -104 -53q-22 0 -42 6.5
t-33 17.5t-20 19t-12 15v172q0 10 -7 17t-17 7q-7 0 -12.5 -3t-8.5 -8.5t-3 -12.5v-171q-4 -5 -8.5 -10t-13 -12.5t-18.5 -14t-22.5 -12.5t-28.5 -9.5t-34 -4.5h-3q-26 0 -53 16t-42 47q-9 20 -12 44.5t2 63t32 92.5t73 115h561q17 -27 34 -59t34 -74t26 -79t6 -73t-21 -58z
M831.5 198q-6.5 0 -12 -3t-9 -8.5t-3.5 -12.5v0v-174q0 -9 -3.5 -18t-10 -15.5t-15.5 -10.5t-19 -4h-207h-288q-20 0 -34 14t-14 34v174q0 4 -1.5 7.5t-3.5 6.5t-5 5.5t-6.5 3.5t-7.5 1t-8 -1t-6.5 -3.5t-5 -5.5t-3.5 -6.5t-1 -7.5v-178q0 -25 12 -46.5t33 -33.5t46 -12h505
q38 0 64.5 27t26.5 65v178q0 7 -3 12.5t-8.5 8.5t-12 3z" />
    <glyph glyph-name="uniE626" unicode="&#xe626;" 
d="M511 812q-105 0 -194.5 -48.5t-142 -134t-52.5 -189.5q0 -43 21.5 -102t55.5 -119t75.5 -122.5t83 -116t76 -96t56.5 -67.5l21 -25q16 18 42 49.5t93 118.5t118.5 164.5t93.5 168t42 147.5q0 76 -31 145t-83.5 118.5t-124.5 79t-150 29.5zM179 442q-1 133 95 224.5
t237 91.5q69 0 131.5 -25t107 -68t70.5 -102t26 -124q0 -136 -246 -457q-50 -66 -88 -111q-14 16 -36.5 43.5t-79.5 105t-101 146t-80 148t-36 128.5zM509 589q-68 0 -116 -48t-48 -116t48 -115.5t115.5 -47.5t115.5 47.5t48 115.5q0 45 -22 82.5t-59.5 59.5t-81.5 22z
M508.5 311q-47.5 0 -81 33.5t-33.5 80.5q0 19 6 36.5t16.5 31.5t24.5 24.5t31.5 16t36.5 5.5q47 0 80.5 -33.5t33.5 -80.5t-33.5 -80.5t-81 -33.5z" />
    <glyph glyph-name="uniE627" unicode="&#xe627;" 
d="M401 746h-257q-9 0 -18 -2t-17 -6t-14.5 -9.5t-12 -12.5t-9.5 -14.5t-6 -16.5t-2 -18v-257q0 -16 6 -31t17 -25.5t25.5 -16.5t30.5 -6h257q33 0 56 23t23 56v257q0 33 -23 56t-56 23zM441 410q0 -11 -5.5 -20t-14.5 -14.5t-20 -5.5h-257q-16 0 -28 11.5t-12 28.5v257
q0 16 12 27.5t28 11.5h257q8 0 15.5 -3t12.5 -8t8.5 -12.5t3.5 -15.5v-257zM876 746h-257q-10 0 -18.5 -2t-16.5 -6t-15 -9.5t-12.5 -12.5t-9 -14.5t-5.5 -16.5t-2 -18v-257q0 -22 10.5 -40t28.5 -28.5t40 -10.5h257q21 0 39.5 10.5t29 28.5t10.5 40v257q0 33 -23.5 56
t-55.5 23zM915 410q0 -6 -1.5 -11t-4 -9t-6 -8t-8 -6.5t-9.5 -4t-10 -1.5h-257q-11 0 -20 5.5t-14.5 14.5t-5.5 20v257q0 16 11.5 27.5t28.5 11.5h257q16 0 27.5 -11.5t11.5 -27.5v-257zM401 271h-257q-33 0 -56 -23t-23 -56v-257q0 -33 23 -56t56 -23h257q22 0 40 10.5
t28.5 29t10.5 39.5v257q0 22 -10.5 40t-28.5 28.5t-40 10.5zM441 -65q0 -11 -5.5 -20t-14.5 -14t-20 -5h-257q-16 0 -28 11.5t-12 27.5v257q0 17 12 28.5t28 11.5h257q16 0 28 -11.5t12 -28.5v-257zM876 271h-257q-11 0 -21.5 -2.5t-19 -8t-16 -12.5t-12.5 -15.5t-7.5 -19
t-2.5 -21.5v-257q0 -33 23 -56t56 -23h257q32 0 55.5 23t23.5 56v257q0 13 -4 25t-11.5 22t-17 17t-21.5 11t-25 4zM915 -65q0 -16 -11.5 -27.5t-27.5 -11.5h-257q-17 0 -28.5 11.5t-11.5 27.5v257q0 17 11.5 28.5t28.5 11.5h257q16 0 27.5 -11.5t11.5 -28.5v-257z" />
    <glyph glyph-name="uniE628" unicode="&#xe628;" 
d="M70 425q0 24 17.5 41t41.5 17h59v-264h-59q-24 0 -41.5 17t-17.5 41v148zM728 667q40 39 73 43t58.5 -17.5t43.5 -62.5t29 -91t17 -105t6 -105t-7.5 -99.5t-21 -93.5t-31.5 -77t-41 -49t-48.5 -11t-54.5 37q-27 32 -73.5 53t-101.5 35.5t-111.5 23.5t-103.5 16
t-78.5 13.5t-34.5 16.5v294q3 13 29 21.5t66 16t90.5 16.5t102.5 24.5t102 39.5t90 61zM390 91q4 -11 11 -24q5 -12 14.5 -28t22.5 -35q16 -23 32.5 -48t25 -45t5.5 -33t-27 -13h-53q-19 0 -35 7t-30.5 21.5t-30 37t-33.5 53.5q-22 36 -30.5 62.5t-11.5 44.5q-3 21 0 36
q8 -1 18 -4q9 -2 21 -4.5t28 -5.5q16 -4 29 -7t23 -7q11 -4 21 -8z" />
    <glyph glyph-name="uniE629" unicode="&#xe629;" horiz-adv-x="1025" 
d="M791 277v46h233v-46h-233zM725 588l202 116l23 -40l-201 -117zM186 486l466 326v-1024l-466 326v372zM233 137l372 -256v838l-372 -256v-326zM0 463h140v-326h-140v326zM47 184h46v232h-46v-232zM950 -64l-23 -40l-202 116l24 40z" />
    <glyph glyph-name="uniE62A" unicode="&#xe62a;" 
d="M918 258h-44q-15 -126 -104.5 -215.5t-215.5 -104.5v-44q0 -18 -12.5 -30t-29.5 -12t-29.5 12t-12.5 30v44q-50 6 -96 25t-83.5 48.5t-67 67t-48.5 83.5t-25 96h-44q-9 0 -16.5 3.5t-13.5 9t-9 13t-3 16.5q0 17 12 29.5t30 12.5h45q14 126 103.5 215.5t215.5 104.5v44
q0 18 12.5 30t29.5 12t29.5 -12t12.5 -30v-45q83 -9 152.5 -53t113.5 -113.5t54 -152.5h44q18 0 30 -12.5t12 -29.5q0 -9 -3 -16.5t-9 -13t-13.5 -9t-16.5 -3.5zM708 342h81q-9 60 -42 110t-83 83t-110 42v-81q0 -11 -5.5 -21t-15.5 -15.5t-21 -5.5q-9 0 -16.5 3.5t-13 9
t-9 13.5t-3.5 16v81q-91 -14 -156 -79t-79 -156h81q8 0 16 -3.5t13.5 -9t9 -13t3.5 -16.5q0 -17 -12.5 -29.5t-29.5 -12.5h-81q9 -60 42 -110t83 -83t110 -42v81q0 17 12.5 29.5t29.5 12.5t29.5 -12.5t12.5 -29.5v-81q91 14 156 79t79 156h-81q-17 0 -29.5 12.5t-12.5 29.5
q0 11 5.5 21t15.5 15.5t21 5.5zM512 258q-9 0 -16.5 3.5t-13 9t-9 13t-3.5 16.5q0 17 12.5 29.5t29.5 12.5t29.5 -12.5t12.5 -29.5q0 -28 -26 -39z" />
    <glyph glyph-name="uniE62B" unicode="&#xe62b;" 
d="M749 519q-2 45 -21 86.5t-50 71.5t-73.5 47.5t-88.5 17.5q-62 0 -116 -29.5t-87 -81t-35 -112.5h-136v-661h738v661h-131zM516 703q78 0 134 -53.5t60 -130.5h-393q4 76 62.5 130t136.5 54zM841 -103h-661v583h98v-93q-20 -11 -20 -34q0 -6 2 -12t5.5 -10.5t8.5 -8
t11 -5.5t12 -2q16 0 27.5 11t11.5 27q0 23 -20 34v93h394v-93q-19 -11 -19 -34q0 -16 11.5 -27t27.5 -11t27.5 11t11.5 27q0 23 -20 34v93h92v-583z" />
    <glyph glyph-name="uniE62C" unicode="&#xe62c;" 
d="M726 445h-357q-7 0 -12 -5t-5 -12q0 -4 2 -8t6 -6.5t9 -2.5h357q3 0 6.5 1.5t5.5 3.5t3.5 5.5t1.5 6.5q0 7 -5 12t-12 5zM726 332h-357q-5 0 -9 -2t-6 -6t-2 -9q0 -3 1.5 -6t3.5 -5.5t5 -4t7 -1.5h357q5 0 8.5 2.5t6 6.5t2.5 8q0 7 -5 12t-12 5zM726 220h-357
q-7 0 -12 -5t-5 -12q0 -3 1.5 -6.5t3.5 -5.5t5 -3.5t7 -1.5h357q7 0 12 5t5 12t-5 12t-12 5zM297 220h-20q-3 0 -5.5 -1t-4.5 -2.5t-4 -3.5t-2.5 -4.5t-0.5 -5.5q0 -17 17 -17h20q3 0 5 0.5t4 1.5t3.5 3t2.5 3.5t1.5 4t0.5 4.5q0 5 -2 8.5t-6 6t-9 2.5zM726 108h-357
q-7 0 -12 -5t-5 -12q0 -4 1.5 -7t3.5 -5.5t5 -3.5t7 -1h357q7 0 12 5t5 12t-5 12t-12 5zM297 108h-20q-7 0 -12 -5t-5 -12t5 -12t12 -5h20q7 0 12 5t5 12t-5 12t-12 5zM297 333h-20q-7 0 -12 -5t-5 -12t5 -12t12 -5h20q17 0 17 17q0 7 -5 12t-12 5zM297 446h-20q-7 0 -12 -5
t-5 -12t5 -12t12 -5h20q7 0 12 5t5 12q0 4 -2 8t-6 6.5t-9 2.5zM844 715h-665q-10 0 -19.5 -4t-16 -10.5t-10.5 -16t-4 -19.5v-752q0 -21 14.5 -35.5t35.5 -14.5h665q21 0 35.5 14.5t14.5 35.5v752q0 21 -14.5 35.5t-35.5 14.5zM859 -87q0 -6 -4.5 -10t-10.5 -4h-665
q-14 0 -14 14v752q0 6 4 10t10 4h665q3 0 6 -1t4.5 -3t3 -4.5t1.5 -5.5v-752zM424 556h171q10 0 17 7t7 16q0 5 -2 9.5t-5 7.5t-7.5 5t-9.5 2h-171q-4 0 -7.5 -1t-6.5 -3.5t-5 -5.5t-3 -6.5t-1 -7.5q0 -9 7 -16t16 -7z" />
    <glyph glyph-name="uniE62D" unicode="&#xe62d;" 
d="M950 552q-5 2 -9.5 1t-7.5 -4l-261 -222v212q0 3 -0.5 4.5t-2 3.5t-2.5 4q-2 2 -5 3t-6 1h-575q-7 0 -11 -4q-1 -1 -2 -2.5t-2 -2.5v-4q-1 -1 -1 -3v-478q0 -7 4.5 -11.5t11.5 -4.5h575q6 0 11 4.5t5 11.5v212l261 -222q8 -7 17 -2.5t9 14.5v237v237q0 2 -0.5 4.5t-2 4
t-3 3.5t-3.5 3zM643 73h-549v454h549v-454zM930 91l-245 209l245 209v-418z" />
    <glyph glyph-name="uniE62E" unicode="&#xe62e;" 
d="M798 631h195q10 0 17.5 -5.5t10.5 -14t1 -17.5l-94 -350q-1 -4 -3 -7t-5 -5.5t-6.5 -5t-7.5 -3.5t-7 -1h-101v59h79l78 291h-157v59zM798 97h103q19 0 27.5 -15t0 -29.5t-27.5 -14.5h-103v59zM798 -216v59q18 0 31.5 13t13.5 31.5t-13.5 32t-31.5 13.5v59
q43 0 73.5 -30.5t30.5 -73.5q0 -28 -14 -52t-38 -38t-52 -14zM379 631h419v-59h-419v59zM798 222h-419v59h419v-59zM379 97h419v-59h-419v59zM798 -8v-59q-19 0 -32 -13.5t-13 -32t13 -31.5t32 -13v-59q-43 0 -73.5 30.5t-30.5 73.5t30.5 73.5t73.5 30.5v0zM379 -216v59
q19 0 32 13t13 31.5t-13 32t-32 13.5v59q43 0 73.5 -30.5t30.5 -73.5t-30.5 -73.5t-73.5 -30.5zM33 749h136q9 0 18.5 -7.5t10.5 -16.5l19 -94h162v-59h-151l56 -291h95v-59h-83l24 -125h59v-59h-83q-6 0 -12.5 3.5t-11 9t-5.5 11.5l-122 628h-112q-20 0 -28.5 15t0 29.5
t28.5 14.5v0zM379 -8v-59q-12 0 -22.5 -6t-16.5 -16.5t-6 -22.5q0 -19 13.5 -32t31.5 -13v-59q-43 0 -73.5 30.5t-30.5 73.5t30.5 73.5t73.5 30.5z" />
  </font>
</defs>
</svg>
